<?xml version="1.0" encoding="UTF-8"?>
<svg width="134px" height="41px" viewBox="0 0 134 41" version="1.1" xmlns="http://www.w3.org/2000/svg" xmlns:xlink="http://www.w3.org/1999/xlink">
    <!-- Generator: Sketch 45.2 (43514) - http://www.bohemiancoding.com/sketch -->
    <title>Podpis</title>
    <desc>Created with Sketch.</desc>
    <defs></defs>
    <g id="Homepage" stroke="none" stroke-width="1" fill="none" fill-rule="evenodd">
        <g id="Homepage---final" transform="translate(-1094.000000, -720.000000)" fill="#1E232E">
            <g id="Podpis" transform="translate(1094.000000, 719.000000)">
                <g id="Page-1">
                    <path d="M69.2189,16.8693 C69.4039,16.2983 69.5439,15.6963 70.1859,15.4313 C70.3219,15.6633 70.4579,15.8953 70.5939,16.1283 C68.9739,19.3483 68.5549,22.8353 68.2139,26.3613 C68.0719,27.8373 68.1789,29.3803 67.4879,30.7753 C66.8339,30.9813 66.8529,30.3093 66.5509,30.0573 C67.1139,26.7773 66.9919,23.3863 68.1309,20.1983 C68.8489,19.2043 69.4939,18.1873 69.2189,16.8693" id="Fill-1"></path>
                    <path d="M102.755,22.1315 C102.102,24.0185 101.15,25.8325 101.348,27.9265 L101.374,27.9075 C101.035,27.8815 100.661,27.9405 100.364,27.8145 C99.006,27.2405 98.907,27.2955 98.983,28.7675 C98.754,29.3145 98.405,28.8705 98.11,28.8735 C98.071,28.4905 98.041,28.1075 97.989,27.7265 C97.911,27.1395 97.537,27.0735 97.054,27.2185 C97.738,25.8225 98.928,24.9255 100.157,24.0665 C100.13,24.5155 100.298,24.9075 100.514,25.3125 C100.711,25.0315 100.582,24.5195 101.115,24.5395 C101.177,24.6215 101.008,24.8665 101.293,24.7915 C101.234,24.7075 101.173,24.6235 101.114,24.5395 C101.093,24.0375 100.722,24.0585 100.375,24.0465 C100.704,22.7205 101.716,21.9055 102.755,22.1315" id="Fill-3"></path>
                    <path d="M12.7745,16.8293 C13.7935,13.7783 14.8075,10.7253 15.8335,7.6773 C15.9875,7.2203 16.0875,6.7713 16.0685,6.2803 C16.0475,5.6913 15.6545,6.0093 15.3495,5.9933 C15.8655,5.5243 16.3655,5.4133 16.9125,5.7813 C17.4965,6.1733 17.2065,6.7223 17.0735,7.1693 C16.1255,10.3693 14.9905,13.5063 13.7865,16.6193 C13.4495,16.6893 13.1115,16.7593 12.7745,16.8293" id="Fill-5"></path>
                    <path d="M43.5719,31.5768 C43.4029,31.3968 43.2329,31.2178 43.0639,31.0368 C43.3499,30.9178 43.3729,30.6738 43.3589,30.4128 L43.3649,30.4258 C45.4589,31.9938 47.5829,31.5628 49.7289,30.5408 C51.0039,29.9328 52.2969,29.3638 53.6539,28.7438 C53.6539,29.0178 53.6859,29.1338 53.6489,29.1638 C51.4559,30.9318 49.0779,32.3448 46.2119,32.6258 C45.3429,32.7108 44.4919,32.3588 43.8029,31.7518 C43.9959,31.5968 44.1949,31.3478 43.9349,31.1968 C43.5869,30.9948 43.6459,31.3948 43.5719,31.5768" id="Fill-7"></path>
                    <path d="M21.9982,31.7331 C21.4562,31.5351 21.4332,31.0121 21.2812,30.5751 C21.1712,30.2601 21.2762,29.8181 20.7652,29.7591 C20.5742,29.5021 20.0162,29.6261 20.0832,29.1011 C21.3662,28.7201 21.6272,27.3151 22.5812,26.5871 C22.8412,26.3881 22.2902,26.2071 22.2252,25.9531 C22.4152,25.5671 22.5772,25.1631 22.8022,24.7981 C23.0902,24.3331 23.3112,23.8931 22.8612,23.4091 C23.2322,22.8981 22.3422,23.2621 22.5182,22.8651 L23.9352,22.8651 C24.4132,24.1471 24.6592,25.3971 23.4512,26.4521 C23.3722,26.5601 23.2922,26.6691 23.2132,26.7771 C22.3652,28.1891 22.1652,29.6661 22.7602,31.2231 C22.5062,31.3931 22.2522,31.5631 21.9982,31.7331" id="Fill-9"></path>
                    <path d="M34.8644,24.8376 C35.6064,23.9356 36.3474,23.0336 37.0894,22.1316 C37.3634,22.1446 37.5744,22.2286 37.5754,22.5546 C37.6444,22.8846 37.5574,23.1936 37.4004,23.4716 C36.2874,25.4306 36.3114,27.5666 36.4174,29.7166 C36.4244,30.2156 36.1074,30.3166 35.6964,30.3026 C35.0534,29.3426 35.2224,28.2546 35.1894,27.1936 C35.1774,26.8166 35.4674,26.2536 34.7154,26.2226 C35.0824,25.7956 35.6024,25.3836 34.8644,24.8376" id="Fill-11"></path>
                    <path d="M98.1105,28.8732 C98.4055,28.8712 98.7545,29.3142 98.9835,28.7682 C99.9695,29.0082 100.7795,28.7582 101.3735,27.9072 L101.3475,27.9262 C102.0845,27.7822 102.4545,27.0892 103.0765,26.7752 C103.0615,27.0562 103.0465,27.3372 103.0315,27.6182 C102.8965,27.7062 102.8305,27.7962 103.0265,27.8912 C103.1735,27.8962 103.3205,27.9012 103.4675,27.9072 C103.7725,28.1322 103.9665,28.5132 104.3845,28.5752 C104.6155,28.6102 104.6475,28.4692 104.4915,28.1122 C104.4835,27.9742 104.4755,27.8372 104.4665,27.7002 C105.6975,27.5502 106.2765,26.3472 107.3365,25.9222 C107.3685,26.3412 107.6555,26.4762 108.0145,26.5312 C107.3035,27.1762 106.4835,27.6772 105.7845,28.3572 C105.1395,28.9872 104.2965,29.4772 103.3735,28.6202 C102.8255,28.1112 102.3585,28.5162 101.8885,28.8372 C101.2745,29.2602 100.7285,29.8522 99.9135,29.8602 C99.1465,29.8682 98.3705,29.8222 98.1105,28.8732" id="Fill-13"></path>
                    <path d="M92.1613,24.53 C91.7213,26.11 91.5773,27.716 91.7413,29.348 C91.5053,29.587 91.2683,29.825 91.0323,30.064 C89.8453,29.253 90.4163,28.068 90.3723,27.009 C90.3513,26.499 90.8873,25.962 90.3043,25.478 C89.8093,24.721 91.0903,24.534 90.8263,23.852 C91.3903,24.059 91.4183,23.257 91.8173,23.219 C92.2333,23.646 91.2763,24.291 92.1613,24.53" id="Fill-15"></path>
                    <path d="M17.6827,18.5393 C19.0117,16.2273 20.5297,14.0383 22.0267,11.8353 C22.5757,12.4593 22.7467,11.3403 23.2117,11.5783 C21.5267,14.1523 19.8407,16.7253 18.1547,19.2993 C18.1537,18.9493 18.1887,18.5763 17.6827,18.5393" id="Fill-17"></path>
                    <path d="M12.3707,28.6125 C12.5537,29.4095 12.1367,30.0875 11.9007,30.7875 C11.4227,32.2145 11.2487,33.6395 11.6637,35.1065 C11.4317,35.3365 11.1997,35.5665 10.9677,35.7965 C9.6837,34.3015 10.0787,32.6065 10.6287,31.0435 C10.8227,30.4935 10.7107,29.7895 11.2187,29.3445 C11.7527,29.3375 11.7867,28.5415 12.3707,28.6125" id="Fill-19"></path>
                    <path d="M80.9469,25.4509 C80.2689,26.0509 79.6069,26.6689 78.9109,27.2479 C77.7269,28.2319 77.2079,28.1089 76.4889,26.7149 C76.9909,26.6679 77.1319,27.4239 77.6869,27.2829 C77.8319,26.9719 77.1009,26.6889 77.6879,26.4049 C78.2489,26.6019 78.6019,26.2259 78.9309,25.9009 C80.0879,24.7599 81.2909,23.6609 82.2919,22.3709 C82.6269,21.9389 82.9189,21.3839 83.5999,21.8889 C82.2049,22.6959 81.7239,24.1829 80.9469,25.4509" id="Fill-21"></path>
                    <path d="M87.2438,23.6149 C86.1658,24.8859 84.9468,26.1079 85.6698,28.0229 C85.6868,28.1939 84.9018,27.9829 85.4778,28.3889 C85.7528,28.5819 85.7408,28.8049 85.7638,29.0569 C84.6538,29.2999 84.1728,28.7399 84.1068,27.7179 C84.0748,27.2139 84.1288,26.7049 84.1428,26.1979 C84.6688,25.8659 85.2138,25.5429 84.7918,24.7779 C85.2508,24.2939 85.7088,23.8089 86.1678,23.3249 C86.5658,23.2749 86.9598,23.2409 87.2438,23.6149" id="Fill-23"></path>
                    <path d="M102.755,22.1315 C101.716,21.9055 100.704,22.7205 100.375,24.0465 C100.302,24.0515 100.23,24.0585 100.157,24.0665 C98.928,24.9255 97.738,25.8225 97.054,27.2185 C96.766,27.4565 96.478,27.6935 96.19,27.9305 C95.821,27.8355 95.454,27.7405 95.086,27.6465 C97.827,25.5085 100.371,23.1655 102.577,20.4675 C103.143,20.3795 102.643,21.3305 103.272,21.1795 C103.308,21.6105 102.91,21.8055 102.755,22.1315" id="Fill-25"></path>
                    <path d="M75.8864,8.8102 C77.6584,8.2692 78.9184,6.9192 80.4114,5.9372 C80.8144,6.5402 81.1544,6.1112 81.4024,5.8182 C81.6774,5.4952 81.9544,5.2942 82.3824,5.3352 C82.2194,5.7152 82.1194,6.0872 81.6984,6.3502 C80.1234,7.3282 78.5904,8.3712 77.0404,9.3902 C76.6834,9.9312 76.3024,9.6962 75.9204,9.4242 C75.8384,9.4222 75.7554,9.4202 75.6734,9.4172 C75.7444,9.2152 75.8154,9.0132 75.8864,8.8102" id="Fill-27"></path>
                    <path d="M85.5416,13.5231 C84.6186,15.0531 83.4916,16.4301 82.3566,17.8011 C82.0656,17.5481 81.9596,17.0531 81.4386,17.1021 C81.6736,16.7171 81.7096,16.2991 81.6516,15.8641 L81.6376,15.8861 C81.7096,15.7821 81.7826,15.6781 81.8546,15.5741 C81.8546,15.5741 81.8236,15.5881 81.8246,15.5881 C82.4806,15.6771 82.3836,15.2261 82.3656,14.8331 C82.4666,14.7071 82.5676,14.5821 82.6676,14.4571 C83.5036,14.7641 83.7886,13.6351 84.5446,13.7371 C84.8636,13.6541 85.1826,13.5701 85.5006,13.4871 L85.5416,13.5231 Z" id="Fill-29"></path>
                    <path d="M115.5485,27.425 C115.5845,26.839 115.9395,26.403 116.2355,25.934 C116.6065,25.345 116.1795,25.286 115.7505,25.242 C116.3545,23.965 117.1455,23.695 117.8655,24.523 C117.8825,25.096 117.4625,25.62 117.6755,26.215 C117.9185,26.961 117.0665,27.448 117.2135,28.172 L117.2285,28.159 C116.4725,28.364 116.1075,27.672 115.5485,27.425" id="Fill-31"></path>
                    <path d="M40.066,30.093 C39.904,30.247 39.742,30.401 39.58,30.555 C39.221,30.54 38.834,30.473 38.794,31.009 C38.323,31.046 37.713,31.498 37.559,30.593 C37.932,30.375 38.059,30.063 38.072,29.62 C38.106,28.437 38.596,27.442 39.465,26.635 C39.653,26.987 40.043,26.914 40.334,27.048 C40.201,27.381 39.742,27.766 40.479,27.961 C40.449,28.52 39.894,28.648 39.612,29.001 C39.066,29.684 39.171,30.038 40.066,30.093" id="Fill-33"></path>
                    <path d="M66.5509,30.0573 C66.8529,30.3093 66.8339,30.9813 67.4879,30.7753 C67.2329,31.7213 66.6139,31.9823 65.7899,31.5403 C64.5019,30.8493 62.9769,30.5533 62.0039,29.3253 C62.1479,29.0263 62.4339,29.1753 62.6549,29.1193 C63.5159,29.4563 64.3769,29.7953 65.2389,30.1303 C65.6859,30.3043 66.1339,30.4363 66.5509,30.0573" id="Fill-35"></path>
                    <path d="M103.2716,21.1799 C102.6426,21.3309 103.1426,20.3789 102.5766,20.4679 C103.4946,18.7979 104.4126,17.1279 105.3306,15.4579 C105.3576,16.2029 106.1136,15.8049 106.4016,16.1409 C105.9876,17.1719 105.4136,18.1109 104.7626,19.0059 C103.8336,19.3529 103.4446,20.0959 103.2936,21.0129 C103.3316,21.0749 103.3246,21.1299 103.2716,21.1799" id="Fill-37"></path>
                    <path d="M75.9347,26.0236 C75.6237,26.4156 75.3127,26.8066 75.0017,27.1986 C74.6297,27.1426 74.1877,27.2946 73.9497,26.8416 C75.4747,24.9166 77.2017,23.1496 78.4997,21.0466 C78.9927,22.2906 79.3397,20.6426 79.7867,20.9816 C79.5807,21.7426 79.0257,22.2736 78.5477,22.8566 C78.2677,22.6826 78.3417,22.3956 78.3147,22.1406 C78.4187,22.1086 78.5217,22.0786 78.6257,22.0476 C78.6057,22.0166 78.5867,21.9856 78.5667,21.9556 C78.4827,22.0166 78.3987,22.0776 78.3137,22.1386 C77.6477,22.9176 77.4497,24.0506 76.5747,24.6386 C76.0167,25.0136 75.8557,25.4266 75.9347,26.0236" id="Fill-39"></path>
                    <path d="M10.2804,24.6257 C9.5464,26.4417 8.8124,28.2577 7.5834,29.8167 C7.2114,29.8697 7.1334,29.4927 6.8954,29.3477 C7.7754,27.6677 8.6544,25.9867 9.5324,24.3057 C9.8324,24.2947 10.1254,24.2997 10.2804,24.6257" id="Fill-41"></path>
                    <path d="M95.0861,27.6467 C95.4541,27.7407 95.8211,27.8357 96.1901,27.9307 C95.3621,28.6387 94.5321,29.3447 93.7081,30.0577 C92.8151,30.8287 91.9261,30.9837 91.0321,30.0637 C91.2681,29.8257 91.5051,29.5867 91.7411,29.3487 C92.7361,29.6647 93.3171,28.9827 93.9671,28.4407 C94.3181,28.1497 94.7121,27.9097 95.0861,27.6467" id="Fill-43"></path>
                    <path d="M117.8654,24.5231 C117.1454,23.6951 116.3544,23.9641 115.7504,25.2421 C114.5644,25.6631 113.9854,26.8651 112.9214,27.4441 C112.7034,27.3541 112.6414,27.1731 112.6414,26.9571 C112.9634,26.7211 112.8804,26.3741 112.8884,26.0521 C114.1584,25.4771 114.9784,24.2981 116.1704,23.6161 C117.2304,23.0111 117.6754,23.2421 117.8654,24.5231" id="Fill-45"></path>
                    <path d="M111.6339,24.0549 C110.6279,24.7059 109.6219,25.3569 108.6149,26.0079 C108.2869,25.8969 107.9599,25.7859 107.6319,25.6749 C109.1029,24.3969 110.7899,23.4489 112.5089,22.5679 C113.4509,22.0849 114.0299,22.4749 113.9169,23.4039 C113.0779,22.7219 112.0379,23.0189 111.6339,24.0549" id="Fill-47"></path>
                    <path d="M106.402,16.1413 C106.114,15.8053 105.358,16.2033 105.331,15.4573 C105.656,14.0463 106.409,13.2193 107.357,13.2553 C107.66,13.2663 108.033,13.1553 108.216,13.5053 C108.404,13.8653 108.091,14.0723 107.896,14.3093 C107.395,14.9173 106.9,15.5303 106.402,16.1413" id="Fill-49"></path>
                    <path d="M40.066,30.093 C39.171,30.038 39.066,29.684 39.612,29.001 C39.894,28.648 40.449,28.52 40.479,27.961 C41.157,27.424 41.812,26.87 42.017,25.969 L42.104,25.989 L42.192,25.974 C42.49,25.974 42.787,25.974 43.084,25.973 C42.993,26.822 42.035,27.413 42.365,28.387 C42.29,28.468 42.214,28.548 42.139,28.628 C41.884,28.625 41.612,28.569 41.441,28.842 C41.065,28.82 41.005,29.244 40.722,29.354 C40.306,29.135 40.571,29.534 40.484,29.614 C40.345,29.774 40.206,29.933 40.066,30.093" id="Fill-51"></path>
                    <path d="M40.2208,16.3488 C40.4928,15.5098 40.9638,14.8098 41.6828,14.2898 C41.9898,14.0698 42.3938,13.9208 42.6838,14.1198 C42.9818,14.3238 43.0128,14.8288 42.8518,15.1128 C42.3628,15.9738 41.9778,16.9468 40.9718,17.3898 C40.8798,16.9278 40.1998,16.8908 40.2208,16.3488" id="Fill-53"></path>
                    <path d="M75.6735,9.4177 C75.7555,9.4197 75.8385,9.4227 75.9205,9.4247 C75.5665,9.9827 76.0245,10.4227 76.1385,10.9137 C75.2525,10.7297 74.6425,11.2247 74.0685,11.7737 C73.4755,12.3387 72.9055,12.9267 72.3255,13.5057 C72.0275,13.3497 71.7225,13.2227 71.3755,13.2587 C72.0085,12.0477 73.0855,11.3067 74.1955,10.5997 C75.0815,10.7157 75.3025,10.1307 75.4225,9.4377 C75.5065,9.4317 75.5895,9.4247 75.6735,9.4177" id="Fill-55"></path>
                    <path d="M34.8644,24.8376 C35.6024,25.3836 35.0824,25.7956 34.7154,26.2226 C33.7574,27.2656 32.7984,28.3076 31.8394,29.3506 C31.7074,29.0506 31.5144,28.8416 31.1494,28.8956 L31.0714,28.8176 C32.3354,27.4916 33.5994,26.1646 34.8644,24.8376" id="Fill-57"></path>
                    <g id="Group-61" transform="translate(129.000000, 0.644200)">
                        <path d="M0.1412,3.5049 C0.5962,2.3659 1.4712,1.5459 2.3332,0.7409 C2.9982,0.1209 3.6772,0.2479 4.3282,1.1369 C2.3442,1.1629 1.8132,2.7859 0.8832,3.9579 C0.6522,3.7799 0.5182,3.4439 0.1412,3.5049" id="Fill-59"></path>
                    </g>
                    <path d="M4.6705,35.1603 C3.6345,36.9743 2.5985,38.7883 1.5625,40.6033 C1.3015,40.4313 1.3725,40.1613 1.3575,39.9173 C1.8195,39.3633 2.1425,38.7553 2.0855,38.0043 C2.3245,36.7873 3.1105,35.8613 3.7575,34.8603 C3.9645,34.9563 3.9895,35.1433 3.9955,35.3403 C3.9335,35.4243 3.8715,35.5093 3.8085,35.5933 C3.8395,35.6143 3.8695,35.6353 3.9005,35.6573 C3.9315,35.5503 3.9625,35.4443 3.9935,35.3383 C4.2195,35.2793 4.4445,35.2203 4.6705,35.1603" id="Fill-62"></path>
                    <path d="M78.3151,22.1403 C78.3421,22.3953 78.2681,22.6823 78.5481,22.8563 C78.1401,24.0093 77.3531,25.0713 77.6881,26.4043 C77.1011,26.6893 77.8321,26.9723 77.6871,27.2833 C77.1311,27.4243 76.9911,26.6683 76.4891,26.7153 C76.3091,26.4803 76.5651,25.8963 75.9351,26.0233 C75.8561,25.4273 76.0171,25.0133 76.5741,24.6383 C77.4491,24.0503 77.6481,22.9173 78.3141,22.1393 L78.3151,22.1403 Z" id="Fill-64"></path>
                    <path d="M80.9469,25.4509 C81.7239,24.1829 82.2049,22.6959 83.5999,21.8889 C84.2749,22.9519 83.2389,23.5189 82.8579,24.2369 C82.5819,24.7539 82.2709,25.1679 82.6339,25.7389 C82.6249,26.2869 82.5459,26.7319 81.9599,26.0759 C81.7889,25.8839 81.6319,25.7489 81.3739,25.7529 C81.2319,25.6529 81.0889,25.5519 80.9469,25.4509" id="Fill-66"></path>
                    <path d="M37.5753,22.5549 C37.5753,22.2289 37.3633,22.1449 37.0893,22.1319 C37.3073,20.7729 38.2943,19.7689 38.7503,18.5199 C39.4683,18.4519 39.0513,19.4189 39.6263,19.4809 C39.1743,20.6599 38.5253,21.7079 37.5753,22.5549" id="Fill-68"></path>
                    <path d="M23.9347,22.8649 L22.5177,22.8649 C22.3427,23.2619 23.2327,22.8979 22.8617,23.4089 C21.3067,23.9309 20.3737,25.1669 19.4367,26.3969 C19.3737,26.1259 19.3007,25.8609 19.0337,25.7089 C19.7527,24.5069 20.7677,23.5649 21.8437,22.7109 C22.5087,22.1829 23.3077,21.8929 23.9347,22.8649" id="Fill-70"></path>
                    <path d="M105.1422,25.2541 C105.1232,25.2281 105.1102,25.1871 105.0862,25.1791 C105.0652,25.1731 105.0332,25.2051 105.0052,25.2201 C105.0372,25.2601 105.0692,25.3011 105.1012,25.3411 C105.1152,25.3121 105.1282,25.2831 105.1422,25.2541 M103.0322,27.6181 C103.0462,27.3371 103.0612,27.0561 103.0772,26.7751 C103.2732,26.5781 103.4692,26.3821 103.6652,26.1871 C103.7632,26.3581 103.8602,26.5291 103.9572,26.7011 C104.2332,26.5701 104.2582,26.4121 104.0092,26.2241 C103.8932,26.2091 103.7772,26.1931 103.6612,26.1781 C103.9982,25.4211 104.4802,24.7751 105.1372,24.2631 C105.4472,24.9831 105.9192,24.9631 106.4772,24.5571 C106.3572,25.4521 105.4812,25.7101 104.9982,26.3001 C104.6572,26.7171 104.1502,27.0441 104.4672,27.7001 C104.4752,27.8371 104.4832,27.9741 104.4922,28.1121 C104.1932,27.8281 103.8912,27.5651 103.4672,27.9071 C103.3202,27.9011 103.1732,27.8961 103.0262,27.8911 C103.0282,27.8001 103.0302,27.7091 103.0322,27.6181" id="Fill-72"></path>
                    <path d="M3.9952,35.34 C3.9902,35.144 3.9642,34.957 3.7572,34.861 C4.4162,33.724 5.0762,32.589 5.7352,31.453 C6.0082,31.538 6.2802,31.624 6.5532,31.71 C6.0932,32.952 5.4232,34.079 4.6702,35.16 C4.4452,35.22 4.2192,35.279 3.9942,35.339 L3.9952,35.34 Z" id="Fill-74"></path>
                    <path d="M15.964,32.6906 C15.954,31.4356 16.1,30.2126 16.705,29.0846 C16.876,29.3576 17.158,29.3126 17.417,29.3336 C17.554,29.9066 16.506,30.6636 17.687,31.0756 C17.572,31.5106 17.911,31.8556 17.925,32.2646 C17.872,32.7386 17.407,32.5096 17.186,32.6966 C16.895,32.5256 16.962,32.2386 16.951,31.9766 C17.037,31.9156 17.284,32.0886 17.21,31.7976 C17.126,31.8586 17.041,31.9206 16.957,31.9826 C16.379,31.8716 16.726,33.0596 15.964,32.6906" id="Fill-76"></path>
                    <path d="M17.9254,32.2643 C17.9114,31.8553 17.5714,31.5103 17.6864,31.0753 C18.3974,30.4143 19.1074,29.7533 19.8174,29.0923 L20.0834,29.1013 C20.0164,29.6263 20.5744,29.5023 20.7654,29.7593 C19.8004,30.5733 19.1794,31.7773 17.9254,32.2643" id="Fill-78"></path>
                    <path d="M21.9982,31.7331 C22.2522,31.5631 22.5062,31.3931 22.7602,31.2231 C23.7532,31.4251 24.5802,31.0791 25.3192,30.4451 C25.4172,30.7431 25.6212,30.9361 25.9102,31.0461 C24.4072,32.6741 23.7652,32.7871 21.9982,31.7331" id="Fill-80"></path>
                    <path d="M95.8253,17.8068 C95.6383,17.8348 95.4433,17.8568 95.4553,18.1168 C95.4563,18.1448 95.5023,18.1928 95.5303,18.1958 C95.7933,18.2148 95.8083,18.0128 95.8463,17.8308 C95.9503,17.7938 96.0563,17.7568 96.1613,17.7198 C96.1393,17.6888 96.0993,17.6308 96.0963,17.6328 C96.0033,17.6868 95.9143,17.7468 95.8253,17.8068 M93.4133,19.9438 C93.9173,19.0458 94.5103,18.2168 95.2533,17.4958 C95.7043,17.0588 96.3263,16.8928 96.7053,17.3148 C97.1573,17.8168 96.5523,18.2018 96.1823,18.5178 C95.7653,18.8758 95.3193,19.1978 94.8853,19.5358 C94.7533,18.8318 94.4393,19.2308 94.2033,19.4418 C93.9643,19.6558 93.9313,20.1708 93.4133,19.9438" id="Fill-82"></path>
                    <path d="M43.0841,25.9733 C42.7871,25.9733 42.4901,25.9743 42.1921,25.9743 C42.1831,25.5073 42.0271,25.1893 41.4771,25.2743 C41.3781,25.1873 41.2801,25.1003 41.1821,25.0133 C41.5011,24.7253 41.8321,24.4503 42.1351,24.1473 C42.5911,23.6933 43.1771,23.6203 43.6191,23.9673 C44.1701,24.3993 43.8241,24.9443 43.4951,25.4043 C43.3581,25.5943 43.2211,25.7843 43.0841,25.9733" id="Fill-84"></path>
                    <path d="M76.1769,13.5407 C75.7309,14.4827 75.1189,15.3187 74.4839,16.1387 C74.1509,16.1347 73.8169,16.1307 73.4829,16.1267 L75.8019,12.3357 C75.9269,12.7377 76.0519,13.1397 76.1769,13.5407" id="Fill-86"></path>
                    <path d="M76.1769,13.5407 C76.0519,13.1397 75.9269,12.7377 75.8019,12.3357 C75.8019,12.3357 75.8059,12.3407 75.8059,12.3417 C75.8669,12.3737 75.9289,12.4037 75.9899,12.4357 C75.9459,12.3847 75.9009,12.3327 75.8569,12.2827 C76.0129,11.8387 76.2999,11.4217 76.1379,10.9137 C76.0239,10.4227 75.5669,9.9827 75.9199,9.4247 C76.3019,9.6967 76.6829,9.9317 77.0409,9.3907 C76.9999,9.5007 76.8899,9.6557 76.9279,9.7157 C77.9059,11.2367 76.6839,12.3177 76.1769,13.5407" id="Fill-88"></path>
                    <path d="M16.9508,31.9763 C16.9618,32.2383 16.8948,32.5253 17.1858,32.6963 C16.4618,33.8313 15.4418,34.6453 14.3178,35.3473 C14.3538,34.9493 14.2708,34.6353 13.7928,34.5983 C14.4638,33.9023 15.3938,33.5013 15.9638,32.6903 C16.7258,33.0593 16.3788,31.8723 16.9568,31.9833 L16.9508,31.9763 Z" id="Fill-90"></path>
                    <path d="M39.6266,19.4807 C39.0506,19.4187 39.4676,18.4527 38.7506,18.5207 C39.2386,17.7947 39.3456,16.8117 40.2206,16.3487 C40.1996,16.8917 40.8796,16.9277 40.9716,17.3897 C40.4806,18.0597 40.5206,19.0707 39.6266,19.4807" id="Fill-92"></path>
                    <path d="M17.6827,18.5393 C18.1887,18.5763 18.1537,18.9493 18.1547,19.2993 C17.2777,20.5053 16.5737,21.8353 15.5517,22.9373 L15.2747,22.3793 C16.0777,21.0993 16.8797,19.8193 17.6827,18.5393" id="Fill-94"></path>
                    <path d="M79.7868,20.9811 C79.3398,20.6421 78.9928,22.2911 78.4998,21.0461 C79.0198,20.1731 79.2698,19.1181 80.2088,18.5291 C80.5328,18.8641 80.8778,17.7141 81.1948,18.5431 C81.2038,18.7951 81.2108,19.0461 81.2198,19.2971 L81.2318,19.2821 C80.7508,19.2431 80.4148,19.3491 80.5648,19.9451 C80.5288,20.0371 80.4928,20.1301 80.4558,20.2221 C80.1268,20.2391 79.9898,20.4181 80.0168,20.7381 L80.0368,20.7141 C79.9488,20.8051 79.8608,20.8971 79.7738,20.9881 L79.7868,20.9811 Z" id="Fill-96"></path>
                    <path d="M90.8263,23.8518 C91.0903,24.5348 89.8093,24.7218 90.3043,25.4778 C89.6743,26.0588 89.0433,26.6388 88.4133,27.2188 C88.2443,26.9648 88.0763,26.7098 87.9073,26.4558 C88.8653,25.4838 89.8233,24.5108 90.7813,23.5378 C90.7963,23.6428 90.8113,23.7478 90.8263,23.8518" id="Fill-98"></path>
                    <path d="M111.6339,24.0549 C112.0379,23.0189 113.0779,22.7219 113.9169,23.4039 C113.7719,24.2099 113.1879,24.7209 112.6619,25.2709 C112.3789,25.2539 112.0739,25.2969 111.8989,24.9889 C111.9819,24.6289 111.9109,24.3129 111.6339,24.0549" id="Fill-100"></path>
                    <path d="M111.8986,24.9885 C112.0736,25.2975 112.3786,25.2545 112.6626,25.2705 C112.6266,25.5635 112.5606,25.8645 112.8886,26.0515 C112.8796,26.3735 112.9636,26.7205 112.6416,26.9575 C112.3856,26.9925 112.4456,26.2195 111.8756,26.7785 C111.4246,27.2175 111.2216,27.6055 111.1826,28.1675 C110.2156,28.1775 110.0266,27.7205 110.5936,27.0175 C111.1056,26.3825 111.1846,25.4825 111.8986,24.9885" id="Fill-102"></path>
                    <path d="M10.257,22.8566 C10.953,21.1686 11.65,19.4806 12.346,17.7916 C12.839,18.0976 12.506,18.4646 12.415,18.8076 C12.309,19.2086 12.085,19.6026 12.408,20.0036 C12.282,20.6096 11.977,21.1336 11.649,21.6466 C11.484,21.6816 11.418,21.0836 11.178,21.5786 C10.946,22.0566 10.932,22.6956 10.257,22.8566" id="Fill-104"></path>
                    <path d="M13.7926,34.5983 C14.2716,34.6353 14.3546,34.9493 14.3176,35.3473 C13.2846,36.1223 12.2376,36.7923 10.9676,35.7963 C11.1996,35.5663 11.4316,35.3363 11.6636,35.1063 C12.5606,35.7213 13.0636,34.6863 13.7926,34.5983" id="Fill-106"></path>
                    <path d="M87.9069,26.4562 C88.0759,26.7102 88.2449,26.9642 88.4139,27.2182 C87.5759,27.8982 87.0169,28.9772 85.7629,29.0572 C85.7409,28.8052 85.7529,28.5822 85.4779,28.3892 C84.9019,27.9832 85.6869,28.1942 85.6699,28.0222 C86.6899,27.8922 87.0759,26.8562 87.9069,26.4562" id="Fill-108"></path>
                    <path d="M72.6051,18.4631 C71.7901,19.3401 71.3161,20.6091 69.7101,20.8601 C70.1591,19.5821 71.2091,18.9281 71.9131,18.0261 C72.2171,18.0551 72.4801,18.1491 72.6051,18.4631" id="Fill-110"></path>
                    <path d="M81.3737,25.7531 C81.6317,25.7491 81.7887,25.8831 81.9597,26.0751 C82.5457,26.7321 82.6247,26.2871 82.6347,25.7391 C83.4837,25.7111 84.0377,25.0191 84.7917,24.7781 C85.2137,25.5431 84.6687,25.8661 84.1437,26.1981 L84.1077,26.0981 C83.9467,25.8701 83.8727,25.9821 83.8177,26.1721 C82.2047,27.3131 81.7147,27.2291 81.3737,25.7531" id="Fill-112"></path>
                    <path d="M29.1622,29.5886 C29.2542,30.1346 29.5422,30.1256 29.8992,29.8326 C30.2982,29.5046 30.6812,29.1566 31.0712,28.8176 C31.0712,28.8176 31.1492,28.8956 31.1492,28.8946 C31.0782,29.2746 31.1472,29.5606 31.6092,29.5856 C30.9512,30.2196 30.6342,31.3046 29.4382,31.2296 C29.3652,31.0026 29.7452,30.7106 29.3082,30.5266 C28.7852,30.3076 28.8792,29.9536 29.1622,29.5886" id="Fill-114"></path>
                    <path d="M14.9611,24.1018 C14.4521,25.0358 13.9091,25.9528 13.4521,26.9118 C13.2691,27.2958 13.0521,27.4628 12.6591,27.4628 C12.5471,27.3538 12.4351,27.2468 12.3221,27.1388 C12.7991,26.0048 13.5521,25.0398 14.2251,24.0258 C14.4701,24.0508 14.7151,24.0768 14.9611,24.1018" id="Fill-116"></path>
                    <path d="M90.8263,23.8518 C90.8113,23.7478 90.7963,23.6428 90.7813,23.5378 L92.5393,21.4548 C92.7713,21.6648 92.8383,22.0308 93.1813,22.1358 C92.8413,22.9338 92.5013,23.7318 92.1613,24.5298 C91.2763,24.2908 92.2333,23.6458 91.8173,23.2198 C91.4183,23.2568 91.3903,24.0598 90.8263,23.8518" id="Fill-118"></path>
                    <path d="M128.484,7.0407 C128.463,8.0677 127.993,8.9547 127.602,9.8667 C127.342,9.8797 127.083,9.8927 126.823,9.9057 C127.117,8.7497 127.313,7.5597 127.998,6.5407 C128.233,6.6367 128.401,6.7967 128.484,7.0407" id="Fill-120"></path>
                    <path d="M25.9098,31.0461 C25.6208,30.9361 25.4168,30.7431 25.3198,30.4451 C25.8458,29.7141 26.5618,29.1821 27.2348,28.6041 C27.3298,28.6091 27.4258,28.6151 27.5208,28.6201 C27.5968,28.9211 27.6718,29.2231 27.7468,29.5251 C26.9738,29.8371 26.6728,30.7201 25.9098,31.0461" id="Fill-122"></path>
                    <g id="Group-126" transform="translate(0.000000, 38.644200)">
                        <path d="M1.358,1.273 C1.373,1.518 1.302,1.788 1.562,1.959 C1.438,2.197 1.374,2.541 1.177,2.653 C0.707,2.923 0.167,3.446 0.047,2.234 C-0.033,1.417 -0.065,0.721 0.401,0.044 C0.096,0.94 1.195,0.742 1.358,1.273" id="Fill-124"></path>
                    </g>
                    <path d="M23.212,11.5783 C22.747,11.3403 22.576,12.4593 22.027,11.8353 C22.533,11.0263 23.039,10.2163 23.544,9.4063 C23.932,9.4453 23.823,8.7773 24.155,8.9023 C24.574,9.0603 24.185,9.4283 24.226,9.6993 C24.236,9.7633 24.306,9.8193 24.349,9.8793 C24.024,10.4823 23.703,11.0873 23.212,11.5783" id="Fill-127"></path>
                    <path d="M93.1813,22.1354 C92.8383,22.0304 92.7713,21.6654 92.5393,21.4544 C92.6413,20.8424 93.0133,20.3844 93.4133,19.9444 C93.9313,20.1704 93.9643,19.6564 94.2033,19.4414 C94.4393,19.2314 94.7533,18.8324 94.8853,19.5354 C94.3173,20.4024 93.7493,21.2684 93.1813,22.1354" id="Fill-129"></path>
                    <path d="M27.7472,29.5246 C27.6722,29.2236 27.5962,28.9216 27.5212,28.6206 C27.7552,28.5626 28.0592,28.2416 28.1992,28.6636 C28.3772,29.2056 28.7862,29.0676 29.1542,29.0946 C29.1562,29.2596 29.1592,29.4236 29.1622,29.5886 C28.8792,29.9536 28.7852,30.3076 29.3082,30.5266 C29.7452,30.7106 29.3652,31.0026 29.4382,31.2296 C28.6522,31.4506 28.2972,31.0486 28.0982,30.3476 C28.0182,30.0666 28.0952,29.6976 27.7472,29.5246" id="Fill-131"></path>
                    <path d="M71.3751,13.2585 C71.7231,13.2225 72.0281,13.3495 72.3261,13.5055 C71.6801,14.3345 71.0471,15.1715 70.5941,16.1285 C70.4581,15.8955 70.3221,15.6635 70.1861,15.4315 C70.0701,14.4265 70.7911,13.8805 71.3751,13.2585" id="Fill-133"></path>
                    <path d="M128.484,7.0407 C128.401,6.7967 128.233,6.6367 127.998,6.5407 C128.379,5.7437 128.76,4.9467 129.141,4.1487 C129.518,4.0877 129.652,4.4237 129.883,4.6027 C129.436,5.4257 129.269,6.4107 128.484,7.0407" id="Fill-135"></path>
                    <path d="M28.6061,28.0598 C28.5661,28.1288 28.5041,28.1888 28.5021,28.2518 C28.5001,28.3148 28.5591,28.3798 28.5901,28.4438 C28.6281,28.3838 28.6921,28.3238 28.6951,28.2618 C28.6981,28.1988 28.6411,28.1328 28.6061,28.0598 M29.1541,29.0948 C28.7861,29.0678 28.3771,29.2058 28.1991,28.6638 C28.0601,28.2418 27.7551,28.5628 27.5211,28.6208 C27.4251,28.6148 27.3301,28.6088 27.2341,28.6038 C27.5621,28.2068 27.8901,27.8098 28.2181,27.4128 C28.6841,27.3318 29.1501,27.2508 29.6161,27.1698 C29.4571,27.8098 29.1381,28.4128 29.1541,29.0948" id="Fill-137"></path>
                    <path d="M17.4171,29.3332 C17.1581,29.3122 16.8751,29.3582 16.7051,29.0842 C16.9161,28.0572 17.6941,27.3892 18.2801,26.5992 C18.3201,26.6332 18.3591,26.6682 18.3981,26.7032 C18.4891,26.9662 18.5801,27.2292 18.6701,27.4922 C18.3501,28.1722 17.9091,28.7702 17.4171,29.3332" id="Fill-139"></path>
                    <path d="M126.8229,9.9055 C127.0829,9.8925 127.3419,9.8795 127.6019,9.8665 C127.0359,11.1345 126.4699,12.4015 125.9049,13.6695 C125.8409,12.3175 126.4409,11.1385 126.8229,9.9055" id="Fill-141"></path>
                    <path d="M73.9498,26.8415 C74.1878,27.2955 74.6298,27.1425 75.0018,27.1985 C74.7968,27.5605 74.6188,27.9445 74.2428,28.1745 C74.1958,28.1405 74.1478,28.1085 74.1008,28.0745 L74.2088,28.2195 C74.2008,28.2815 74.1658,28.3215 74.1048,28.3375 C73.8098,28.0665 73.5398,28.2735 73.2638,28.3825 C73.1908,28.4595 73.1168,28.5365 73.0428,28.6145 L72.3028,28.6105 C72.3848,28.3015 72.4658,27.9935 72.5468,27.6845 C73.2438,27.7855 73.4758,27.1115 73.9498,26.8415" id="Fill-143"></path>
                    <path d="M12.4083,20.0036 C12.0843,19.6026 12.3093,19.2086 12.4153,18.8076 C12.5053,18.4646 12.8393,18.0976 12.3463,17.7916 C12.4893,17.4706 12.6323,17.1496 12.7743,16.8296 C13.1123,16.7596 13.4493,16.6896 13.7863,16.6186 C13.5153,17.3526 13.3593,18.1326 12.8893,18.7826 C12.8563,18.8006 12.7933,18.8196 12.7943,18.8356 C12.7983,18.8946 12.8223,18.9526 12.8393,19.0116 C12.7903,19.3836 12.6593,19.7196 12.4083,20.0036" id="Fill-145"></path>
                    <path d="M10.257,22.8566 C10.932,22.6956 10.946,22.0566 11.178,21.5786 C11.418,21.0836 11.484,21.6816 11.649,21.6466 C11.312,22.6936 10.859,23.6886 10.28,24.6256 C10.125,24.2996 9.833,24.2946 9.533,24.3056 C9.721,23.7966 10.216,23.4396 10.257,22.8566" id="Fill-147"></path>
                    <path d="M82.382,5.3351 C81.954,5.2941 81.677,5.4951 81.402,5.8181 C81.154,6.1111 80.814,6.5411 80.411,5.9371 C81.255,5.4481 81.841,4.5481 82.891,4.3901 C83.133,4.5481 83.374,4.7071 83.615,4.8651 C83.303,5.2811 82.877,5.3971 82.382,5.3351" id="Fill-149"></path>
                    <path d="M29.6158,27.1696 C29.1498,27.2506 28.6838,27.3316 28.2178,27.4126 C28.4008,27.0656 28.5588,26.7036 28.7738,26.3786 C28.9528,26.1106 28.9548,25.6456 29.4478,25.6766 C29.7468,25.6946 29.8808,25.8506 30.0118,26.1456 C30.2458,26.6746 30.0208,26.9346 29.6158,27.1696" id="Fill-151"></path>
                    <path d="M106.3571,23.0549 C106.8231,22.4839 107.5041,21.5959 108.0931,22.2699 C108.7451,23.0159 107.6381,23.5259 107.1131,24.0339 C107.2071,23.4399 107.1871,22.9349 106.3571,23.0549" id="Fill-153"></path>
                    <path d="M106.3571,23.0549 C107.1871,22.9349 107.2071,23.4399 107.1131,24.0339 C106.9011,24.2079 106.6891,24.3829 106.4771,24.5569 C105.9201,24.9639 105.4471,24.9829 105.1371,24.2629 C105.2561,23.8669 105.7021,23.8469 105.9321,23.5769 C106.2591,23.5529 106.4031,23.3779 106.3641,23.0509 L106.3571,23.0549 Z" id="Fill-155"></path>
                    <path d="M83.1339,4.1428 C83.6339,3.4198 84.4989,3.1468 85.1079,2.5428 C85.3789,2.2748 85.9349,2.1638 86.2539,2.5998 C86.6399,3.1278 85.9779,3.1798 85.7929,3.4508 C85.6129,2.6638 85.1959,3.0988 84.8619,3.2888 C84.3009,3.6068 83.8719,4.1848 83.1339,4.1428" id="Fill-157"></path>
                    <path d="M83.1339,4.1428 C83.8719,4.1848 84.3009,3.6068 84.8619,3.2888 C85.1959,3.0988 85.6129,2.6638 85.7929,3.4508 L85.7989,3.4448 C85.3569,3.4158 85.0989,3.6098 85.0509,4.0598 C84.6039,4.3848 84.2199,4.8218 83.6149,4.8658 C83.3739,4.7068 83.1329,4.5488 82.8909,4.3908 C82.9719,4.3078 83.0529,4.2258 83.1339,4.1428" id="Fill-159"></path>
                    <path d="M6.5529,31.7101 C6.2809,31.6241 6.0079,31.5381 5.7349,31.4531 C6.1219,30.7511 6.5089,30.0491 6.8959,29.3481 C7.1329,29.4921 7.2109,29.8691 7.5829,29.8161 C6.9059,30.2661 7.0299,31.1511 6.5529,31.7101" id="Fill-161"></path>
                    <path d="M111.1823,28.1672 C111.2213,27.6052 111.4253,27.2182 111.8753,26.7782 C112.4463,26.2192 112.3863,26.9932 112.6413,26.9572 C112.6413,27.1732 112.7033,27.3542 112.9213,27.4442 C112.4233,27.8822 111.9943,28.4852 111.1823,28.1672" id="Fill-163"></path>
                    <path d="M72.6544,29.1188 C72.4334,29.1758 72.1484,29.0268 72.0044,29.3248 C71.4614,29.1098 70.8274,28.9548 71.1564,28.1288 C71.2954,27.7818 71.6254,27.4518 71.9134,27.4678 C72.5374,27.5028 71.9264,27.9358 72.0404,28.1488 C72.2194,28.4858 72.4474,28.7968 72.6544,29.1188" id="Fill-165"></path>
                    <path d="M84.5451,13.7375 C83.7891,13.6355 83.5031,14.7635 82.6681,14.4565 C82.9351,13.6705 83.4601,13.0745 84.0761,12.5465 C84.1581,12.6275 84.2401,12.7075 84.3221,12.7885 C84.2531,13.1385 84.3951,13.4395 84.5451,13.7375" id="Fill-167"></path>
                    <path d="M81.195,18.5436 C80.878,17.7146 80.533,18.8636 80.209,18.5296 C80.116,17.8776 80.554,17.4706 80.901,17.0216 C81.043,17.2986 81.213,17.3866 81.439,17.1016 C81.96,17.0526 82.066,17.5476 82.357,17.8016 C82.266,17.8996 82.175,17.9976 82.084,18.0956 L81.676,18.0576 C81.646,17.9536 81.616,17.8496 81.586,17.7456 L81.495,17.8056 C81.554,17.8906 81.613,17.9756 81.673,18.0606 C81.582,18.2896 81.427,18.4546 81.195,18.5436" id="Fill-169"></path>
                    <path d="M84.1862,12.4152 C84.3082,12.1592 84.4692,11.9242 84.7432,11.8292 C85.1822,11.6782 85.6522,11.4032 86.0652,11.8542 C86.5322,12.3642 86.0442,12.6802 85.7782,13.0322 C85.6982,13.0182 85.6182,13.0032 85.5382,12.9892 C85.5542,12.9342 85.5632,12.8772 85.5622,12.8192 C85.6672,12.7232 85.8002,12.5622 85.6612,12.4852 C85.4782,12.3842 85.5102,12.6282 85.4542,12.7272 C85.0902,12.5622 84.7352,12.3442 84.3122,12.5372 C84.2722,12.4952 84.2302,12.4542 84.1862,12.4152" id="Fill-171"></path>
                    <path d="M37.5587,30.5934 C37.7127,31.4974 38.3237,31.0464 38.7937,31.0094 C38.7837,31.0824 38.7807,31.1564 38.7847,31.2304 C37.9967,31.8744 37.2017,32.2444 36.3727,31.2934 C36.5507,30.9544 37.1227,31.0414 37.1687,30.5584 C37.2987,30.5704 37.4287,30.5814 37.5587,30.5934" id="Fill-173"></path>
                    <path d="M41.1818,25.0129 C41.2808,25.0999 41.3788,25.1879 41.4768,25.2749 C41.4558,25.4869 41.4358,25.6989 41.4158,25.9109 C41.2438,25.9939 41.0068,25.9719 40.9358,26.2149 C40.3478,26.2029 40.1298,26.4589 40.3448,27.0299 L40.3338,27.0479 C40.0428,26.9139 39.6538,26.9869 39.4648,26.6359 C39.9018,25.9509 40.5778,25.5209 41.1818,25.0129" id="Fill-175"></path>
                    <path d="M73.483,16.1271 C73.816,16.1311 74.15,16.1341 74.484,16.1381 C74.229,16.8301 73.632,17.2511 73.176,17.7831 C73.127,17.7131 73.078,17.6441 73.028,17.5731 C72.95,17.4951 72.872,17.4171 72.794,17.3381 C72.74,17.2841 72.683,17.2341 72.62,17.1901 C72.85,16.7891 73.098,16.4021 73.483,16.1271" id="Fill-177"></path>
                    <path d="M1.358,39.9172 C1.195,39.3862 0.096,39.5842 0.401,38.6882 C1.26,39.1922 1.521,38.2232 2.086,38.0042 C2.142,38.7552 1.819,39.3632 1.358,39.9172" id="Fill-179"></path>
                    <path d="M69.2189,16.8693 C69.4939,18.1873 68.8489,19.2043 68.1309,20.1983 C68.4289,19.0673 68.6649,17.9163 69.2189,16.8693" id="Fill-181"></path>
                    <path d="M41.4415,28.842 C41.6115,28.569 41.8835,28.625 42.1395,28.628 C42.1825,29.471 42.5765,30.074 43.3585,30.413 C43.3725,30.674 43.3495,30.918 43.0635,31.037 C42.2545,30.504 42.0715,29.508 41.4415,28.842" id="Fill-183"></path>
                    <path d="M87.2438,23.6149 C86.9598,23.2409 86.5658,23.2749 86.1678,23.3249 C86.3118,23.1399 86.4328,22.9299 86.6028,22.7739 C86.9788,22.4289 87.4748,22.1649 87.8228,22.6759 C88.1898,23.2149 87.5488,23.3629 87.2438,23.6149" id="Fill-185"></path>
                    <path d="M72.3029,28.6101 L73.0429,28.6141 C73.1159,28.5371 73.1909,28.4601 73.2639,28.3821 C73.5399,28.2741 73.8099,28.0661 74.1049,28.3371 C72.7939,29.6171 72.4969,29.6561 71.7199,28.6501 C71.8569,28.6201 71.9929,28.5901 72.1299,28.5601 C72.1879,28.5751 72.2459,28.5921 72.3029,28.6101" id="Fill-187"></path>
                    <path d="M12.3224,27.1384 C12.4344,27.2464 12.5474,27.3544 12.6594,27.4624 C12.7274,27.7414 12.5154,27.9104 12.4044,28.1194 C12.3954,28.2764 12.3854,28.4314 12.3764,28.5884 L12.3704,28.6124 C11.7864,28.5414 11.7534,29.3374 11.2184,29.3444 C11.4234,28.5274 11.7404,27.7664 12.3224,27.1384" id="Fill-189"></path>
                    <path d="M43.3585,30.4128 C42.5765,30.0738 42.1825,29.4708 42.1395,28.6278 C42.2145,28.5478 42.2905,28.4678 42.3655,28.3878 C43.0115,28.9128 43.1835,29.6708 43.3655,30.4248 C43.3655,30.4258 43.3585,30.4128 43.3585,30.4128" id="Fill-191"></path>
                    <path d="M24.3488,9.8791 C24.3068,9.8191 24.2358,9.7631 24.2258,9.6991 C24.1848,9.4281 24.5738,9.0611 24.1548,8.9021 C23.8228,8.7771 23.9318,9.4451 23.5438,9.4061 C23.7768,9.0281 23.4148,8.3741 24.0378,8.2051 C24.3578,8.1181 24.6778,8.3801 24.8178,8.6521 C25.0958,9.1911 24.6088,9.5061 24.3488,9.8791" id="Fill-193"></path>
                    <path d="M14.9611,24.1018 C14.7151,24.0768 14.4701,24.0508 14.2251,24.0258 C14.5751,23.4768 14.9241,22.9278 15.2741,22.3798 L15.5511,22.9378 C15.3551,23.3258 15.1581,23.7138 14.9611,24.1018" id="Fill-195"></path>
                    <path d="M73.7599,9.402 C73.2919,9.268 72.9989,8.983 73.0839,8.473 C73.1109,8.315 73.3019,8.067 73.4269,8.061 C73.8989,8.04 73.8829,8.652 74.2639,8.788 C74.0959,8.992 73.9279,9.197 73.7599,9.402" id="Fill-197"></path>
                    <path d="M37.1686,30.5583 C37.1236,31.0413 36.5506,30.9543 36.3726,31.2933 C36.0016,31.0633 35.7936,30.7213 35.6966,30.3033 C36.1066,30.3163 36.4246,30.2153 36.4176,29.7163 C36.6686,29.9963 36.9186,30.2773 37.1686,30.5583" id="Fill-199"></path>
                    <path d="M75.4225,9.4377 C75.3025,10.1307 75.0815,10.7157 74.1955,10.5997 C74.3965,10.2937 74.5295,9.9857 74.2345,9.6587 C74.5835,9.3297 75.0165,9.4587 75.4225,9.4377" id="Fill-201"></path>
                    <path d="M103.2941,21.0124 C103.4441,20.0954 103.8331,19.3534 104.7621,19.0054 C104.3411,19.7244 104.0861,20.5644 103.2941,21.0124" id="Fill-203"></path>
                    <path d="M117.2135,28.1721 C117.0665,27.4481 117.9185,26.9611 117.6755,26.2141 C118.2455,26.1921 118.7175,26.3501 118.1965,26.9571 C117.8575,27.3541 117.8185,28.0021 117.2135,28.1721" id="Fill-205"></path>
                    <path d="M115.5485,27.425 C116.1075,27.672 116.4725,28.364 117.2285,28.159 C116.9535,28.647 116.4935,28.736 116.0385,28.571 C115.5285,28.387 115.4275,27.93 115.5485,27.425" id="Fill-207"></path>
                    <path d="M72.3029,28.6101 C72.2459,28.5921 72.1879,28.5751 72.1299,28.5601 C72.0539,28.3361 72.1119,28.0551 71.8519,27.9081 C71.9699,27.4511 72.0879,26.9951 72.2239,26.4621 C72.7829,26.8221 72.3999,27.3211 72.5469,27.6851 C72.4659,27.9931 72.3849,28.3021 72.3029,28.6101" id="Fill-209"></path>
                    <path d="M75.4225,9.4377 C75.0165,9.4587 74.5835,9.3297 74.2345,9.6587 C74.0765,9.5737 73.9185,9.4877 73.7595,9.4017 C73.9275,9.1977 74.0955,8.9927 74.2645,8.7877 C74.8025,8.9257 75.3435,8.9567 75.8865,8.8107 C75.8155,9.0127 75.7445,9.2157 75.6735,9.4177 C75.5895,9.4247 75.5055,9.4317 75.4225,9.4377" id="Fill-211"></path>
                    <path d="M19.0333,25.7092 C19.3013,25.8602 19.3733,26.1262 19.4363,26.3972 C19.3233,26.5762 19.2103,26.7542 19.0973,26.9322 C18.8653,26.8562 18.6313,26.7802 18.3983,26.7042 C18.3593,26.6682 18.3203,26.6332 18.2803,26.5992 C18.5313,26.3022 18.7823,26.0052 19.0333,25.7092" id="Fill-213"></path>
                    <path d="M81.4386,17.1018 C81.2126,17.3868 81.0426,17.2988 80.9006,17.0208 C81.1506,16.6358 81.4016,16.2498 81.6516,15.8638 C81.7096,16.2988 81.6736,16.7178 81.4386,17.1018" id="Fill-215"></path>
                    <path d="M107.6315,25.675 C107.9595,25.786 108.2875,25.897 108.6155,26.008 C108.4155,26.182 108.2145,26.357 108.0145,26.531 C107.6555,26.476 107.3685,26.341 107.3365,25.922 C107.3565,25.746 107.4915,25.707 107.6315,25.675" id="Fill-217"></path>
                    <path d="M72.6051,18.4631 C72.4801,18.1491 72.2171,18.0551 71.9131,18.0261 C72.1481,17.7481 72.3841,17.4691 72.6201,17.1911 C72.6831,17.2341 72.7401,17.2841 72.7931,17.3381 L73.0281,17.5731 C73.0781,17.6441 73.1261,17.7131 73.1761,17.7831 C72.9861,18.0101 72.7951,18.2361 72.6051,18.4631" id="Fill-219"></path>
                    <path d="M81.195,18.5436 C81.427,18.4546 81.582,18.2896 81.673,18.0606 L81.676,18.0576 L82.084,18.0956 C81.883,18.5596 81.613,18.9726 81.219,19.2976 C81.211,19.0456 81.203,18.7946 81.195,18.5436" id="Fill-221"></path>
                    <path d="M31.6095,29.5851 C31.1475,29.5611 31.0785,29.2741 31.1495,28.8951 C31.5145,28.8421 31.7075,29.0501 31.8395,29.3501 C31.7625,29.4281 31.6865,29.5071 31.6095,29.5851" id="Fill-223"></path>
                    <path d="M43.5719,31.5768 C43.6459,31.3948 43.5869,30.9948 43.9349,31.1968 C44.1949,31.3478 43.9959,31.5968 43.8029,31.7518 C43.7259,31.6938 43.6489,31.6348 43.5719,31.5768" id="Fill-225"></path>
                    <path d="M80.5651,19.945 C80.4151,19.349 80.7511,19.243 81.2321,19.282 C81.1491,19.644 80.8251,19.761 80.5651,19.945" id="Fill-227"></path>
                    <path d="M38.7843,31.2307 C38.7803,31.1567 38.7833,31.0827 38.7943,31.0097 C38.8333,30.4727 39.2213,30.5397 39.5793,30.5557 C39.3563,30.8297 39.1343,31.1057 38.7843,31.2307" id="Fill-229"></path>
                    <path d="M71.8522,27.9084 C72.1122,28.0544 72.0542,28.3364 72.1292,28.5604 C71.9932,28.5904 71.8572,28.6194 71.7202,28.6494 C71.5022,28.3554 71.6882,28.1344 71.8522,27.9084" id="Fill-231"></path>
                    <path d="M85.0514,4.0598 C85.0994,3.6098 85.3574,3.4158 85.7994,3.4448 C85.6534,3.7748 85.3594,3.9268 85.0514,4.0598" id="Fill-233"></path>
                    <path d="M82.3659,14.8327 C82.3839,15.2267 82.4809,15.6777 81.8239,15.5877 C81.9239,15.2777 82.0809,15.0097 82.3659,14.8327" id="Fill-235"></path>
                    <path d="M12.3766,28.5881 C12.3856,28.4321 12.3956,28.2761 12.4046,28.1201 C12.4726,28.2481 12.7506,28.2161 12.6746,28.4291 C12.6466,28.5071 12.4806,28.5361 12.3766,28.5881" id="Fill-237"></path>
                    <path d="M106.3639,23.051 C106.4039,23.378 106.2599,23.552 105.9319,23.577 C105.9169,23.271 106.1679,23.184 106.3639,23.051" id="Fill-239"></path>
                    <path d="M80.0172,20.7385 C79.9892,20.4185 80.1272,20.2385 80.4562,20.2225 C80.4802,20.5395 80.2402,20.6315 80.0172,20.7385" id="Fill-241"></path>
                    <path d="M40.4845,29.6144 C40.5705,29.5334 40.3065,29.1354 40.7215,29.3534 L40.4845,29.6144 Z" id="Fill-243"></path>
                    <path d="M103.6613,26.1784 C103.7773,26.1934 103.8933,26.2084 104.0093,26.2234 C103.9923,26.3834 103.9743,26.5414 103.9573,26.7004 C103.8603,26.5294 103.7633,26.3584 103.6653,26.1864 C103.6653,26.1864 103.6613,26.1784 103.6613,26.1784" id="Fill-245"></path>
                    <path d="M85.5382,12.9885 L85.7782,13.0325 C85.7582,13.2245 85.7762,13.4345 85.5412,13.5235 L85.5012,13.4875 C85.5132,13.3215 85.5252,13.1545 85.5382,12.9885" id="Fill-247"></path>
                    <polygon id="Fill-249" points="0.777 38.1955 0.718 38.1955 0.748 38.2985"></polygon>
                    <path d="M12.839,19.0114 C12.822,18.9524 12.798,18.8944 12.794,18.8354 C12.793,18.8204 12.856,18.8004 12.89,18.7824 C12.901,18.8654 12.885,18.9414 12.839,19.0114" id="Fill-251"></path>
                    <path d="M83.818,26.1726 C83.872,25.9826 83.946,25.8696 84.108,26.0986 C84.011,26.1226 83.915,26.1476 83.818,26.1726" id="Fill-253"></path>
                    <path d="M75.8566,12.2824 C75.9006,12.3334 75.9456,12.3844 75.9896,12.4354 C75.9286,12.4044 75.8676,12.3734 75.8056,12.3414 C75.8056,12.3404 75.8566,12.2824 75.8566,12.2824" id="Fill-255"></path>
                    <path d="M23.213,26.7775 C23.293,26.6695 23.372,26.5605 23.451,26.4515 C23.372,26.5605 23.293,26.6695 23.213,26.7775" id="Fill-257"></path>
                    <path d="M81.8546,15.5739 C81.7826,15.6779 81.7096,15.7819 81.6376,15.8859 C81.7096,15.7819 81.7826,15.6779 81.8546,15.5739" id="Fill-259"></path>
                    <path d="M84.3219,12.7883 C84.2399,12.7073 84.1579,12.6273 84.0759,12.5463 C84.0779,12.4733 84.1139,12.4293 84.1859,12.4153 C84.2299,12.4543 84.2719,12.4953 84.3119,12.5373 C84.3159,12.6213 84.3189,12.7053 84.3219,12.7883" id="Fill-261"></path>
                    <path d="M79.7736,20.988 C79.8606,20.897 79.9486,20.805 80.0366,20.714 C79.9486,20.805 79.8616,20.897 79.7736,20.988" id="Fill-263"></path>
                    <path d="M74.2091,28.2199 L74.1011,28.0749 C74.1481,28.1079 74.1961,28.1409 74.2431,28.1739 L74.2091,28.2199 Z" id="Fill-265"></path>
                    <path d="M100.1574,24.0666 C100.2294,24.0586 100.3024,24.0516 100.3754,24.0456 C100.7224,24.0586 101.0934,24.0376 101.1144,24.5396 L101.1154,24.5396 C100.5824,24.5196 100.7114,25.0316 100.5134,25.3126 C100.2984,24.9076 100.1304,24.5156 100.1574,24.0666" id="Fill-267"></path>
                    <path d="M101.1139,24.5397 C101.1739,24.6237 101.2339,24.7077 101.2929,24.7917 C101.0079,24.8667 101.1769,24.6217 101.1149,24.5397 L101.1139,24.5397 Z" id="Fill-269"></path>
                    <path d="M19.817,29.0925 C20.62,28.0465 21.422,26.9995 22.225,25.9535 C22.291,26.2065 22.841,26.3875 22.581,26.5865 C21.627,27.3155 21.366,28.7205 20.084,29.1015 L19.817,29.0925 Z" id="Fill-271"></path>
                    <path d="M103.4674,27.9069 C103.8914,27.5649 104.1934,27.8279 104.4914,28.1119 C104.6474,28.4689 104.6154,28.6099 104.3844,28.5749 C103.9674,28.5129 103.7724,28.1319 103.4674,27.9069" id="Fill-273"></path>
                    <path d="M103.0319,27.6179 C103.0299,27.7089 103.0279,27.7999 103.0259,27.8909 C102.8299,27.7959 102.8969,27.7059 103.0319,27.6179" id="Fill-275"></path>
                    <path d="M84.3219,12.7883 C84.3189,12.7053 84.3159,12.6213 84.3119,12.5373 C84.7359,12.3443 85.0899,12.5623 85.4539,12.7273 C85.4899,12.7583 85.5269,12.7883 85.5629,12.8193 C85.5629,12.8773 85.5539,12.9343 85.5379,12.9893 C85.5259,13.1543 85.5129,13.3213 85.5009,13.4873 C85.1829,13.5703 84.8639,13.6543 84.5449,13.7373 C84.3949,13.4393 84.2529,13.1393 84.3219,12.7883" id="Fill-277"></path>
                    <path d="M78.3141,22.1389 C78.3981,22.0779 78.4821,22.0169 78.5661,21.9559 C78.5861,21.9859 78.6061,22.0169 78.6261,22.0479 C78.5221,22.0779 78.4181,22.1089 78.3151,22.1399 L78.3141,22.1389 Z" id="Fill-279"></path>
                    <path d="M42.0167,25.9689 C41.8167,25.9489 41.6157,25.9299 41.4157,25.9109 C41.4357,25.6979 41.4557,25.4869 41.4767,25.2749 C42.0267,25.1899 42.1827,25.5069 42.1917,25.9739 C42.1927,25.9739 42.1037,25.9899 42.1037,25.9899 L42.0167,25.9689 Z" id="Fill-281"></path>
                    <path d="M3.9938,35.3386 C3.9628,35.4446 3.9318,35.5506 3.9008,35.6566 C3.8698,35.6356 3.8398,35.6146 3.8088,35.5936 C3.8708,35.5086 3.9328,35.4246 3.9948,35.3396 L3.9938,35.3386 Z" id="Fill-283"></path>
                    <path d="M105.1422,25.2541 C105.1282,25.2831 105.1152,25.3121 105.1012,25.3411 C105.0692,25.3011 105.0372,25.2601 105.0052,25.2201 C105.0332,25.2051 105.0652,25.1731 105.0862,25.1791 C105.1102,25.1871 105.1232,25.2281 105.1422,25.2541" id="Fill-285"></path>
                    <path d="M103.9572,26.7009 C103.9742,26.5419 103.9922,26.3829 104.0092,26.2239 C104.2582,26.4119 104.2332,26.5709 103.9572,26.7009" id="Fill-287"></path>
                    <path d="M16.9567,31.9831 C17.0407,31.9211 17.1257,31.8591 17.2097,31.7971 C17.2837,32.0891 17.0367,31.9151 16.9507,31.9761 L16.9567,31.9831 Z" id="Fill-289"></path>
                    <path d="M95.8458,17.8312 C95.8088,18.0122 95.7938,18.2142 95.5308,18.1952 C95.5018,18.1932 95.4558,18.1452 95.4548,18.1172 C95.4438,17.8572 95.6378,17.8342 95.8248,17.8072 L95.8458,17.8312 Z" id="Fill-291"></path>
                    <path d="M95.8253,17.8068 C95.9143,17.7468 96.0033,17.6868 96.0963,17.6328 C96.0993,17.6308 96.1393,17.6888 96.1613,17.7198 C96.0563,17.7568 95.9503,17.7938 95.8463,17.8308 C95.8463,17.8308 95.8253,17.8068 95.8253,17.8068" id="Fill-293"></path>
                    <path d="M28.6061,28.0598 C28.6411,28.1328 28.6981,28.1988 28.6951,28.2618 C28.6921,28.3238 28.6281,28.3838 28.5901,28.4438 C28.5591,28.3798 28.5001,28.3148 28.5021,28.2518 C28.5041,28.1888 28.5661,28.1288 28.6061,28.0598" id="Fill-295"></path>
                    <path d="M19.0978,26.9323 L18.6698,27.4923 C18.5798,27.2293 18.4888,26.9663 18.3988,26.7033 C18.6318,26.7803 18.8648,26.8563 19.0978,26.9323" id="Fill-297"></path>
                    <path d="M73.2643,28.3825 C73.1903,28.4595 73.1163,28.5375 73.0423,28.6145 C73.1173,28.5365 73.1903,28.4595 73.2643,28.3825" id="Fill-299"></path>
                    <path d="M81.673,18.0607 C81.613,17.9757 81.554,17.8907 81.495,17.8057 L81.586,17.7457 C81.616,17.8497 81.646,17.9537 81.676,18.0577 L81.673,18.0607 Z" id="Fill-301"></path>
                    <path d="M85.4538,12.7272 C85.5098,12.6282 85.4788,12.3842 85.6608,12.4852 C85.8008,12.5622 85.6668,12.7232 85.5628,12.8192 C85.5268,12.7892 85.4908,12.7582 85.4538,12.7272" id="Fill-303"></path>
                    <path d="M73.0285,17.5734 L72.7935,17.3384 C72.8715,17.4164 72.9495,17.4954 73.0285,17.5734" id="Fill-305"></path>
                </g>
            </g>
        </g>
    </g>
</svg>